<svg width="112" height="36" viewBox="0 0 112 36" fill="none" xmlns="http://www.w3.org/2000/svg">
<path d="M29.7417 6.95572L18.9963 0.719557C17.3173 -0.239852 15.2066 -0.239852 13.5277 0.719557L2.78229 6.95572C1.10332 7.91513 0.0479698 9.73801 0.0479698 11.7048V24.1292C0.0479698 26.0959 1.10332 27.8708 2.78229 28.8782L13.5277 35.1144C15.2066 36.0738 17.3173 36.0738 18.9963 35.1144L29.7417 28.8782C31.4207 27.9188 32.476 26.0959 32.476 24.1292V11.6568C32.428 9.73801 31.4207 7.91513 29.7417 6.95572ZM18.2288 28.5424C17.7491 28.5424 17.3653 28.1587 17.3653 27.679C17.3653 27.2472 17.7491 26.8155 18.1808 26.8635C18.7085 26.8635 18.9963 27.1513 18.9963 27.7269C18.9963 28.1587 18.6605 28.5424 18.2288 28.5424ZM20.6273 27.7269C20.1956 27.7269 19.7638 27.3432 19.8118 26.9114C19.8118 26.4797 20.1476 26.048 20.6273 26.0959C21.155 26.048 21.4428 26.4797 21.4908 26.9114C21.5387 27.3911 21.107 27.7269 20.6273 27.7269ZM21.2509 19.6199C20.7712 20.1956 20.1476 20.4834 19.428 20.5793C18.5646 20.6753 17.845 20.3875 17.2214 19.7638C16.8856 19.428 16.5498 19.0923 16.214 18.7565C15.9262 19.0443 15.6384 19.3321 15.3506 19.6199C14.9668 20.0037 14.5351 20.2915 14.0074 20.4834C13.4317 20.6753 12.9041 20.6273 12.3764 20.4354C11.7528 20.1956 11.2251 19.8118 10.9373 19.2362C10.7454 18.9004 10.6015 18.5166 10.6015 18.1328C10.5535 17.5092 10.6974 16.9336 11.0332 16.4059C11.4649 15.7343 12.0886 15.3506 12.9041 15.2546C13.6236 15.1107 14.2952 15.3506 14.8708 15.7343C15.0627 15.8303 15.2066 16.0221 15.3506 16.1661C15.6384 16.4539 15.9262 16.7417 16.262 17.0775C16.5978 16.7417 16.9336 16.4059 17.2694 16.0221C17.7011 15.5904 18.2288 15.3506 18.8524 15.2546C19.7159 15.1587 20.4834 15.4465 21.107 16.0221C22.1144 16.9816 22.1624 18.5646 21.2509 19.6199ZM26.8155 18.9963C26.7196 19.6679 26.5756 20.3395 26.3838 21.0111C26.0959 22.0185 25.6642 22.9299 25.0886 23.7934C24.7528 24.2251 24.417 24.6568 24.0812 25.0886C23.9852 25.2325 23.9852 25.2804 24.0812 25.3764C24.321 25.6162 24.5609 25.8561 24.8487 26.1439C24.369 26.1439 23.9852 26.1439 23.6015 26.1439C23.1697 26.1439 22.786 26.1439 22.3542 26.1439C22.2103 26.1439 22.1144 26.0959 22.1144 25.952C22.1144 25.1365 22.1144 24.369 22.1144 23.5535C22.1144 23.5535 22.1144 23.5055 22.1624 23.4576C22.4022 23.7454 22.69 23.9852 22.9299 24.2251C23.0258 24.321 23.1218 24.369 23.2177 24.2251C23.6015 23.6974 24.0332 23.1697 24.369 22.5941C24.8967 21.8266 25.1845 20.9631 25.4244 20.0517C25.6642 19.0923 25.7122 18.0849 25.6642 17.0775C25.5683 15.6863 25.1845 14.3911 24.4649 13.1919C24.1292 12.6162 23.6974 12.0886 23.2657 11.5609C22.4502 10.6015 21.4428 9.88192 20.2915 9.35424C19.476 8.97048 18.6125 8.68266 17.7011 8.58672C16.9815 8.49077 16.262 8.4428 15.5424 8.49078C14.4871 8.58672 13.4797 8.82657 12.5203 9.2583C11.6568 9.64207 10.8893 10.1218 10.2177 10.7454C9.78598 11.1292 9.35424 11.5609 9.01845 12.0406C8.58671 12.5683 8.25092 13.1919 7.91513 13.7675C7.48339 14.631 7.1476 15.5424 7.05166 16.5498C7.00369 17.2694 6.90775 17.9889 6.95572 18.6605C7.05166 19.7159 7.29151 20.7232 7.72325 21.6827C8.20295 22.69 8.7786 23.6015 9.54612 24.369C10.2657 25.0886 11.0332 25.7122 11.9446 26.1919C12.7601 26.6236 13.6236 26.9114 14.5351 27.1033C15.1107 27.1993 15.7343 27.2472 16.31 27.2952C16.31 27.679 16.31 28.0627 16.31 28.5424C15.9262 28.5424 15.5424 28.5424 15.1587 28.4945C14.4871 28.3985 13.8155 28.2546 13.1439 28.0627C11.9446 27.7269 10.8893 27.1513 9.88192 26.3838C8.73063 25.5203 7.77122 24.417 7.05166 23.1697C6.47601 22.1624 6.09225 21.107 5.8524 20.0037C5.66052 19.0923 5.61255 18.1808 5.66052 17.2694C5.75646 15.6863 6.18819 14.1513 6.95572 12.7601C7.33948 12.0406 7.81919 11.369 8.39483 10.7454C9.35424 9.69004 10.5055 8.82657 11.8007 8.20295C12.6162 7.81919 13.4797 7.53137 14.3911 7.38745C15.1107 7.24354 15.8782 7.19557 16.6458 7.19557C17.6052 7.24354 18.5166 7.38745 19.476 7.67528C20.4834 7.9631 21.3948 8.39483 22.2583 9.01845C22.786 9.40221 23.2657 9.78598 23.7454 10.2177C24.4649 10.8893 25.0886 11.6568 25.5683 12.4723C26.1439 13.3838 26.5277 14.3911 26.7675 15.4465C26.8635 15.9742 26.9594 16.5498 27.0074 17.1255C26.8635 17.7491 26.9114 18.3727 26.8155 18.9963Z" fill="#4680FF"/>
<path d="M38.3906 26V10H44.7969C45.974 10 46.9557 10.1745 47.7422 10.5234C48.5286 10.8724 49.1198 11.3568 49.5156 11.9766C49.9115 12.5911 50.1094 13.2995 50.1094 14.1016C50.1094 14.7266 49.9844 15.276 49.7344 15.75C49.4844 16.2187 49.1406 16.6042 48.7031 16.9062C48.2708 17.2031 47.776 17.4141 47.2188 17.5391V17.6953C47.8281 17.7214 48.3984 17.8932 48.9297 18.2109C49.4661 18.5286 49.901 18.974 50.2344 19.5469C50.5677 20.1146 50.7344 20.7917 50.7344 21.5781C50.7344 22.4271 50.5234 23.1849 50.1016 23.8516C49.6849 24.513 49.0677 25.0365 48.25 25.4219C47.4323 25.8073 46.4245 26 45.2266 26H38.3906ZM41.7734 23.2344H44.5313C45.474 23.2344 46.1615 23.0547 46.5938 22.6953C47.026 22.3307 47.2422 21.8464 47.2422 21.2422C47.2422 20.7995 47.1354 20.4089 46.9219 20.0703C46.7083 19.7318 46.4036 19.4661 46.0078 19.2734C45.6172 19.0807 45.151 18.9844 44.6094 18.9844H41.7734V23.2344ZM41.7734 16.6953H44.2812C44.7448 16.6953 45.1563 16.6146 45.5156 16.4531C45.8802 16.2865 46.1667 16.0521 46.375 15.75C46.5885 15.4479 46.6953 15.0859 46.6953 14.6641C46.6953 14.0859 46.4896 13.6198 46.0781 13.2656C45.6719 12.9115 45.0938 12.7344 44.3438 12.7344H41.7734V16.6953ZM52.873 26V14H56.0996V16.0937H56.2246C56.4434 15.349 56.8105 14.7865 57.3262 14.4063C57.8418 14.0208 58.4355 13.8281 59.1074 13.8281C59.2741 13.8281 59.4538 13.8385 59.6465 13.8594C59.8392 13.8802 60.0085 13.9089 60.1543 13.9453V16.8984C59.998 16.8516 59.7819 16.8099 59.5059 16.7734C59.2298 16.737 58.9772 16.7188 58.748 16.7188C58.2585 16.7188 57.821 16.8255 57.4355 17.0391C57.0553 17.2474 56.7533 17.5391 56.5293 17.9141C56.3105 18.2891 56.2012 18.7214 56.2012 19.2109V26H52.873ZM66.7852 26.2344C65.5508 26.2344 64.4883 25.9844 63.5977 25.4844C62.7122 24.9792 62.0299 24.2656 61.5508 23.3437C61.0716 22.4167 60.832 21.3203 60.832 20.0547C60.832 18.8203 61.0716 17.737 61.5508 16.8047C62.0299 15.8724 62.7044 15.1458 63.5742 14.625C64.4492 14.1042 65.4753 13.8438 66.6523 13.8438C67.444 13.8438 68.181 13.9714 68.8633 14.2266C69.5508 14.4766 70.1497 14.8542 70.6602 15.3594C71.1758 15.8646 71.5768 16.5 71.8633 17.2656C72.1497 18.026 72.293 18.9167 72.293 19.9375V20.8516H62.1602V18.7891H69.1602C69.1602 18.3099 69.056 17.8854 68.8477 17.5156C68.6393 17.1458 68.3503 16.8568 67.9805 16.6484C67.6159 16.4349 67.1914 16.3281 66.707 16.3281C66.2018 16.3281 65.7539 16.4453 65.3633 16.6797C64.9779 16.9089 64.6758 17.2187 64.457 17.6094C64.2383 17.9948 64.1263 18.4245 64.1211 18.8984V20.8594C64.1211 21.4531 64.2305 21.9661 64.4492 22.3984C64.6732 22.8307 64.9883 23.1641 65.3945 23.3984C65.8008 23.6328 66.2826 23.75 66.8398 23.75C67.2096 23.75 67.5482 23.6979 67.8555 23.5938C68.1628 23.4896 68.4258 23.3333 68.6445 23.125C68.8633 22.9167 69.0299 22.6615 69.1445 22.3594L72.2227 22.5625C72.0664 23.3021 71.7461 23.9479 71.2617 24.5C70.7826 25.0469 70.1628 25.474 69.4023 25.7813C68.6471 26.0833 67.7747 26.2344 66.7852 26.2344ZM79.9336 26.2344C78.6992 26.2344 77.6367 25.9844 76.7461 25.4844C75.8607 24.9792 75.1784 24.2656 74.6992 23.3437C74.2201 22.4167 73.9805 21.3203 73.9805 20.0547C73.9805 18.8203 74.2201 17.737 74.6992 16.8047C75.1784 15.8724 75.8529 15.1458 76.7227 14.625C77.5977 14.1042 78.6237 13.8438 79.8008 13.8438C80.5924 13.8438 81.3294 13.9714 82.0117 14.2266C82.6992 14.4766 83.2982 14.8542 83.8086 15.3594C84.3242 15.8646 84.7253 16.5 85.0117 17.2656C85.2982 18.026 85.4414 18.9167 85.4414 19.9375V20.8516H75.3086V18.7891H82.3086C82.3086 18.3099 82.2044 17.8854 81.9961 17.5156C81.7878 17.1458 81.4987 16.8568 81.1289 16.6484C80.7643 16.4349 80.3398 16.3281 79.8555 16.3281C79.3503 16.3281 78.9023 16.4453 78.5117 16.6797C78.1263 16.9089 77.8242 17.2187 77.6055 17.6094C77.3867 17.9948 77.2747 18.4245 77.2695 18.8984V20.8594C77.2695 21.4531 77.3789 21.9661 77.5977 22.3984C77.8216 22.8307 78.1367 23.1641 78.543 23.3984C78.9492 23.6328 79.431 23.75 79.9883 23.75C80.3581 23.75 80.6966 23.6979 81.0039 23.5938C81.3112 23.4896 81.5742 23.3333 81.793 23.125C82.0117 22.9167 82.1784 22.6615 82.293 22.3594L85.3711 22.5625C85.2148 23.3021 84.8945 23.9479 84.4102 24.5C83.931 25.0469 83.3112 25.474 82.5508 25.7813C81.7956 26.0833 80.9232 26.2344 79.9336 26.2344ZM87.5508 26V24.0156L93.4258 16.7422V16.6562H87.7539V14H97.4336V16.1641L91.918 23.2578V23.3437H97.6367V26H87.5508ZM105.307 26.2344C104.072 26.2344 103.01 25.9844 102.119 25.4844C101.234 24.9792 100.551 24.2656 100.072 23.3437C99.5931 22.4167 99.3535 21.3203 99.3535 20.0547C99.3535 18.8203 99.5931 17.737 100.072 16.8047C100.551 15.8724 101.226 15.1458 102.096 14.625C102.971 14.1042 103.997 13.8438 105.174 13.8438C105.965 13.8438 106.702 13.9714 107.385 14.2266C108.072 14.4766 108.671 14.8542 109.182 15.3594C109.697 15.8646 110.098 16.5 110.385 17.2656C110.671 18.026 110.814 18.9167 110.814 19.9375V20.8516H100.682V18.7891H107.682C107.682 18.3099 107.577 17.8854 107.369 17.5156C107.161 17.1458 106.872 16.8568 106.502 16.6484C106.137 16.4349 105.713 16.3281 105.229 16.3281C104.723 16.3281 104.275 16.4453 103.885 16.6797C103.499 16.9089 103.197 17.2187 102.979 17.6094C102.76 17.9948 102.648 18.4245 102.643 18.8984V20.8594C102.643 21.4531 102.752 21.9661 102.971 22.3984C103.195 22.8307 103.51 23.1641 103.916 23.3984C104.322 23.6328 104.804 23.75 105.361 23.75C105.731 23.75 106.07 23.6979 106.377 23.5938C106.684 23.4896 106.947 23.3333 107.166 23.125C107.385 22.9167 107.551 22.6615 107.666 22.3594L110.744 22.5625C110.588 23.3021 110.268 23.9479 109.783 24.5C109.304 25.0469 108.684 25.474 107.924 25.7813C107.169 26.0833 106.296 26.2344 105.307 26.2344Z" fill="#4680FF"/>
</svg>
