<svg width="33" height="36" viewBox="0 0 33 36" fill="none" xmlns="http://www.w3.org/2000/svg">
<path d="M29.7417 6.95572L18.9963 0.719557C17.3173 -0.239852 15.2066 -0.239852 13.5277 0.719557L2.78229 6.95572C1.10332 7.91513 0.0479698 9.73801 0.0479698 11.7048V24.1292C0.0479698 26.0959 1.10332 27.8708 2.78229 28.8782L13.5277 35.1144C15.2066 36.0738 17.3173 36.0738 18.9963 35.1144L29.7417 28.8782C31.4207 27.9188 32.476 26.0959 32.476 24.1292V11.6568C32.428 9.73801 31.4207 7.91513 29.7417 6.95572ZM18.2288 28.5424C17.7491 28.5424 17.3653 28.1587 17.3653 27.679C17.3653 27.2472 17.7491 26.8155 18.1808 26.8635C18.7085 26.8635 18.9963 27.1513 18.9963 27.7269C18.9963 28.1587 18.6605 28.5424 18.2288 28.5424ZM20.6273 27.7269C20.1956 27.7269 19.7638 27.3432 19.8118 26.9114C19.8118 26.4797 20.1476 26.048 20.6273 26.0959C21.155 26.048 21.4428 26.4797 21.4908 26.9114C21.5387 27.3911 21.107 27.7269 20.6273 27.7269ZM21.2509 19.6199C20.7712 20.1956 20.1476 20.4834 19.428 20.5793C18.5646 20.6753 17.845 20.3875 17.2214 19.7638C16.8856 19.428 16.5498 19.0923 16.214 18.7565C15.9262 19.0443 15.6384 19.3321 15.3506 19.6199C14.9668 20.0037 14.5351 20.2915 14.0074 20.4834C13.4317 20.6753 12.9041 20.6273 12.3764 20.4354C11.7528 20.1956 11.2251 19.8118 10.9373 19.2362C10.7454 18.9004 10.6015 18.5166 10.6015 18.1328C10.5535 17.5092 10.6974 16.9336 11.0332 16.4059C11.4649 15.7343 12.0886 15.3506 12.9041 15.2546C13.6236 15.1107 14.2952 15.3506 14.8708 15.7343C15.0627 15.8303 15.2066 16.0221 15.3506 16.1661C15.6384 16.4539 15.9262 16.7417 16.262 17.0775C16.5978 16.7417 16.9336 16.4059 17.2694 16.0221C17.7011 15.5904 18.2288 15.3506 18.8524 15.2546C19.7159 15.1587 20.4834 15.4465 21.107 16.0221C22.1144 16.9816 22.1624 18.5646 21.2509 19.6199ZM26.8155 18.9963C26.7196 19.6679 26.5756 20.3395 26.3838 21.0111C26.0959 22.0185 25.6642 22.9299 25.0886 23.7934C24.7528 24.2251 24.417 24.6568 24.0812 25.0886C23.9852 25.2325 23.9852 25.2804 24.0812 25.3764C24.321 25.6162 24.5609 25.8561 24.8487 26.1439C24.369 26.1439 23.9852 26.1439 23.6015 26.1439C23.1697 26.1439 22.786 26.1439 22.3542 26.1439C22.2103 26.1439 22.1144 26.0959 22.1144 25.952C22.1144 25.1365 22.1144 24.369 22.1144 23.5535C22.1144 23.5535 22.1144 23.5055 22.1624 23.4576C22.4022 23.7454 22.69 23.9852 22.9299 24.2251C23.0258 24.321 23.1218 24.369 23.2177 24.2251C23.6015 23.6974 24.0332 23.1697 24.369 22.5941C24.8967 21.8266 25.1845 20.9631 25.4244 20.0517C25.6642 19.0923 25.7122 18.0849 25.6642 17.0775C25.5683 15.6863 25.1845 14.3911 24.4649 13.1919C24.1292 12.6162 23.6974 12.0886 23.2657 11.5609C22.4502 10.6015 21.4428 9.88192 20.2915 9.35424C19.476 8.97048 18.6125 8.68266 17.7011 8.58672C16.9815 8.49077 16.262 8.4428 15.5424 8.49078C14.4871 8.58672 13.4797 8.82657 12.5203 9.2583C11.6568 9.64207 10.8893 10.1218 10.2177 10.7454C9.78598 11.1292 9.35424 11.5609 9.01845 12.0406C8.58671 12.5683 8.25092 13.1919 7.91513 13.7675C7.48339 14.631 7.1476 15.5424 7.05166 16.5498C7.00369 17.2694 6.90775 17.9889 6.95572 18.6605C7.05166 19.7159 7.29151 20.7232 7.72325 21.6827C8.20295 22.69 8.7786 23.6015 9.54612 24.369C10.2657 25.0886 11.0332 25.7122 11.9446 26.1919C12.7601 26.6236 13.6236 26.9114 14.5351 27.1033C15.1107 27.1993 15.7343 27.2472 16.31 27.2952C16.31 27.679 16.31 28.0627 16.31 28.5424C15.9262 28.5424 15.5424 28.5424 15.1587 28.4945C14.4871 28.3985 13.8155 28.2546 13.1439 28.0627C11.9446 27.7269 10.8893 27.1513 9.88192 26.3838C8.73063 25.5203 7.77122 24.417 7.05166 23.1697C6.47601 22.1624 6.09225 21.107 5.8524 20.0037C5.66052 19.0923 5.61255 18.1808 5.66052 17.2694C5.75646 15.6863 6.18819 14.1513 6.95572 12.7601C7.33948 12.0406 7.81919 11.369 8.39483 10.7454C9.35424 9.69004 10.5055 8.82657 11.8007 8.20295C12.6162 7.81919 13.4797 7.53137 14.3911 7.38745C15.1107 7.24354 15.8782 7.19557 16.6458 7.19557C17.6052 7.24354 18.5166 7.38745 19.476 7.67528C20.4834 7.9631 21.3948 8.39483 22.2583 9.01845C22.786 9.40221 23.2657 9.78598 23.7454 10.2177C24.4649 10.8893 25.0886 11.6568 25.5683 12.4723C26.1439 13.3838 26.5277 14.3911 26.7675 15.4465C26.8635 15.9742 26.9594 16.5498 27.0074 17.1255C26.8635 17.7491 26.9114 18.3727 26.8155 18.9963Z" fill="#4680FF"/>
</svg>
